<?xml version="1.0" encoding="UTF-8"?>
<svg version="1.1" xmlns="http://www.w3.org/2000/svg" width="32" height="32">
<path d="M0 0 C4.42484878 2.21242439 7.19476657 4.94799616 10 9 C11.35682449 13.07047347 11.52472254 16.74391717 11 21 C8.46759618 25.9710149 5.01138866 29.49430567 0 32 C-4.95482094 32.54360446 -8.87125852 32.56437074 -13.375 30.3125 C-20.70287272 23.85699308 -20.70287272 23.85699308 -21.203125 19.046875 C-21.34089151 12.29631606 -20.08367976 8.34413972 -15.5 3.1875 C-10.94243395 -0.80037029 -5.79717851 -0.65116514 0 0 Z " fill="#0B0B0B" transform="translate(21,0)"/>
<path d="M0 0 C-0.66 2.97 -1.32 5.94 -2 9 C-2.556875 8.505 -3.11375 8.01 -3.6875 7.5 C-6.38162983 5.75245633 -7.85375007 5.73781251 -11 6 C-11.66 8.64 -12.32 11.28 -13 14 C-8.71 14 -4.42 14 0 14 C0.66 12.35 1.32 10.7 2 9 C3.28667172 7.29705213 4.61096733 5.62053812 6 4 C9.875 5.75 9.875 5.75 11 8 C12.04849691 18.00565623 12.04849691 18.00565623 9.8828125 22.125 C8.5 23.75 8.5 23.75 6 26 C4 24.1875 4 24.1875 2 22 C2 21.01 2 20.02 2 19 C-1.63 19 -5.26 19 -9 19 C-9 18.34 -9 17.68 -9 17 C-9.66 17 -10.32 17 -11 17 C-10.43628586 20.26954202 -9.50037734 21.82575883 -7 24 C-7.66 25.32 -8.32 26.64 -9 28 C-10.14926266 27.04578192 -11.29430541 26.08647955 -12.4375 25.125 C-13.07558594 24.59132813 -13.71367187 24.05765625 -14.37109375 23.5078125 C-16.58644287 21.45715361 -16.96605235 20.3767633 -17.23828125 17.35546875 C-17.43960818 8.76198752 -17.43960818 8.76198752 -15.125 4.75 C-13 3 -13 3 -11 3 C-11 2.34 -11 1.68 -11 1 C-7.57067929 -0.71466036 -3.78283935 -0.05404056 0 0 Z " fill="#909090" transform="translate(19,2)"/>
<path d="M0 0 C0.66 0 1.32 0 2 0 C2 0.66 2 1.32 2 2 C3.0725 1.814375 4.145 1.62875 5.25 1.4375 C10.62162162 0.81081081 10.62162162 0.81081081 13 2 C15.14197494 4.90696599 16 6.35521088 16 10 C11.8794254 11.99785435 8.54805635 12.17835515 4 12 C3.9175 11.0925 3.835 10.185 3.75 9.25 C2.90751268 5.59922161 1.82118382 4.36615417 -1 2 C-0.67 1.34 -0.34 0.68 0 0 Z " fill="#181818" transform="translate(8,19)"/>
<path d="M0 0 C3.08431723 -0.48699746 4.53022505 -0.29528711 7.1875 1.375 C8.49317142 2.54560196 9.76002282 3.76002282 11 5 C11.66 4.67 12.32 4.34 13 4 C12.375 6.4375 12.375 6.4375 11 9 C7.40643641 10.0704232 5.5731613 10.19105377 2 9 C1.67 9.66 1.34 10.32 1 11 C1 10.34 1 9.68 1 9 C0.01 9 -0.98 9 -2 9 C-2.25 3.375 -2.25 3.375 0 0 Z " fill="#060606" transform="translate(8,7)"/>
<path d="M0 0 C5.04262572 2.11086658 8.06798004 4.34326242 11 9 C11.39385583 12.05113627 11.305589 14.94410996 11 18 C10.67 18 10.34 18 10 18 C9.89042969 17.30132813 9.78085937 16.60265625 9.66796875 15.8828125 C9.50941406 14.97273437 9.35085937 14.06265625 9.1875 13.125 C9.03667969 12.22007813 8.88585938 11.31515625 8.73046875 10.3828125 C8.16948699 7.65587522 8.16948699 7.65587522 5 6 C4.773125 6.598125 4.54625 7.19625 4.3125 7.8125 C2.66188867 10.56351888 0.8027919 11.52484637 -2 13 C-3.71050559 8.02398374 -2.00885647 4.57383705 0 0 Z " fill="#191919" transform="translate(20,0)"/>
<path d="M0 0 C3.60296594 -0.41176754 4.78402067 -0.1535853 7.8125 2 C8.534375 2.66 9.25625 3.32 10 4 C7.59454362 5.20272819 6.05003047 5.10071472 3.375 5.0625 C2.14910156 5.04896484 2.14910156 5.04896484 0.8984375 5.03515625 C-0.04128906 5.01775391 -0.04128906 5.01775391 -1 5 C-0.67 3.35 -0.34 1.7 0 0 Z " fill="#909090" transform="translate(14,25)"/>
<path d="M0 0 C1.65 0.33 3.3 0.66 5 1 C1.375 7.75 1.375 7.75 -2 10 C-1.34 6.7 -0.68 3.4 0 0 Z " fill="#909090" transform="translate(20,3)"/>
<path d="M0 0 C2.3125 0.1875 2.3125 0.1875 5 1 C8 5.03448276 8 5.03448276 8 8 C6.0625 7.6875 6.0625 7.6875 4 7 C3.67 6.01 3.34 5.02 3 4 C2.01 4 1.02 4 0 4 C0 2.68 0 1.36 0 0 Z " fill="#060606" transform="translate(16,20)"/>
<path d="M0 0 C5.75 -0.125 5.75 -0.125 8 1 C8 1.66 8 2.32 8 3 C7.01 3.33 6.02 3.66 5 4 C5 3.34 5 2.68 5 2 C4.34 2 3.68 2 3 2 C3 2.66 3 3.32 3 4 C2.01 3.67 1.02 3.34 0 3 C0 2.01 0 1.02 0 0 Z " fill="#C8C8C8" transform="translate(5,17)"/>
</svg>
